{
  "accessors": [
    {
      "bufferView": 2,
      "componentType": 5126,
      "count": 33796,
      "max": [
        3.345153331756592,
        -0.42160797119140625,
        1.4511399269104004
      ],
      "min": [
        -2.7041141986846924,
        -19.275123596191406,
        -2.2878177165985107
      ],
      "type": "VEC3"
    },
    {
      "bufferView": 2,
      "byteOffset": 405552,
      "componentType": 5126,
      "count": 33796,
      "max": [
        0.9999598860740662,
        0.9998700022697449,
        0.9999955296516418
      ],
      "min": [
        -0.999999463558197,
        -0.9998342394828796,
        -0.9999973773956299
      ],
      "type": "VEC3"
    },
    {
      "bufferView": 3,
      "componentType": 5126,
      "count": 33796,
      "max": [
        1.0,
        0.9372549057006836,
        0.8235294222831726,
        1.0
      ],
      "min": [
        0.09019608050584793,
        0.003921568859368563,
        0.0,
        1.0
      ],
      "type": "VEC4"
    },
    {
      "bufferView": 1,
      "componentType": 5126,
      "count": 33796,
      "max": [
        0.9992089867591858,
        0.8452150225639343
      ],
      "min": [
        0.0004879999905824661,
        0.0004949999856762588
      ],
      "type": "VEC2"
    },
    {
      "bufferView": 0,
      "componentType": 5125,
      "count": 180000,
      "type": "SCALAR"
    }
  ],
  "asset": {
    "extras": {
      "author": "EP Photogrammetry (https://sketchfab.com/richard.jbacsa)",
      "license": "SKETCHFAB Standard (https://sketchfab.com/licenses)",
      "source": "https://sketchfab.com/3d-models/carrot-bb49bfca7b854e9eb62f93603fa2d215",
      "title": "Carrot"
    },
    "generator": "Sketchfab-15.86.0",
    "version": "2.0"
  },
  "bufferViews": [
    {
      "buffer": 0,
      "byteLength": 720000,
      "name": "floatBufferViews",
      "target": 34963
    },
    {
      "buffer": 0,
      "byteLength": 270368,
      "byteOffset": 720000,
      "byteStride": 8,
      "name": "floatBufferViews",
      "target": 34962
    },
    {
      "buffer": 0,
      "byteLength": 811104,
      "byteOffset": 990368,
      "byteStride": 12,
      "name": "floatBufferViews",
      "target": 34962
    },
    {
      "buffer": 0,
      "byteLength": 540736,
      "byteOffset": 1801472,
      "byteStride": 16,
      "name": "floatBufferViews",
      "target": 34962
    }
  ],
  "buffers": [
    {
      "byteLength": 2342208,
      "uri": "scene.bin"
    }
  ],
  "images": [
    {
      "uri": "textures/Carrot_3_LOD0_u0_v0_baseColor.jpeg"
    }
  ],
  "materials": [
    {
      "doubleSided": true,
      "name": "Carrot_3_LOD0_u0_v0",
      "pbrMetallicRoughness": {
        "baseColorTexture": {
          "index": 0
        },
        "metallicFactor": 0.0
      }
    }
  ],
  "meshes": [
    {
      "name": "Object_0",
      "primitives": [
        {
          "attributes": {
            "COLOR_0": 2,
            "NORMAL": 1,
            "POSITION": 0,
            "TEXCOORD_0": 3
          },
          "indices": 4,
          "material": 0,
          "mode": 4
        }
      ]
    }
  ],
  "nodes": [
    {
      "children": [
        1
      ],
      "matrix": [
        1.0,
        0.0,
        0.0,
        0.0,
        0.0,
        2.220446049250313e-16,
        -1.0,
        0.0,
        0.0,
        1.0,
        2.220446049250313e-16,
        0.0,
        0.0,
        0.0,
        0.0,
        1.0
      ],
      "name": "Sketchfab_model"
    },
    {
      "children": [
        2
      ],
      "name": "Carrot_3_LOD0.obj.cleaner.materialmerger.gles"
    },
    {
      "mesh": 0,
      "name": "Object_2"
    }
  ],
  "samplers": [
    {
      "magFilter": 9729,
      "minFilter": 9987,
      "wrapS": 10497,
      "wrapT": 10497
    }
  ],
  "scene": 0,
  "scenes": [
    {
      "name": "Sketchfab_Scene",
      "nodes": [
        0
      ]
    }
  ],
  "textures": [
    {
      "sampler": 0,
      "source": 0
    }
  ]
}
