{
  "accessors": [
    {
      "bufferView": 2,
      "componentType": 5126,
      "count": 28203,
      "max": [
        0.19385921955108643,
        0.865398645401001,
        0.4198566675186157
      ],
      "min": [
        -0.20190195739269257,
        -0.9309768080711365,
        -0.39902186393737793
      ],
      "type": "VEC3"
    },
    {
      "bufferView": 2,
      "byteOffset": 338436,
      "componentType": 5126,
      "count": 28203,
      "max": [
        0.999980628490448,
        0.9999554753303528,
        0.9999936819076538
      ],
      "min": [
        -0.9999945163726807,
        -0.999565839767456,
        -0.9999216198921204
      ],
      "type": "VEC3"
    },
    {
      "bufferView": 1,
      "componentType": 5126,
      "count": 28203,
      "max": [
        0.9903838634490967,
        0.9988777041435242
      ],
      "min": [
        0.0011224132031202316,
        0.0011222362518310547
      ],
      "type": "VEC2"
    },
    {
      "bufferView": 0,
      "componentType": 5125,
      "count": 150000,
      "type": "SCALAR"
    }
  ],
  "asset": {
    "extras": {
      "author": "B4D7 (https://sketchfab.com/B4D7)",
      "license": "SKETCHFAB Standard (https://sketchfab.com/licenses)",
      "source": "https://sketchfab.com/3d-models/banana-fruit-1-2cd6b527f86a4696857f165b47febbdc",
      "title": "Banana fruit 1"
    },
    "generator": "Sketchfab-15.55.0",
    "version": "2.0"
  },
  "bufferViews": [
    {
      "buffer": 0,
      "byteLength": 600000,
      "name": "floatBufferViews",
      "target": 34963
    },
    {
      "buffer": 0,
      "byteLength": 225624,
      "byteOffset": 600000,
      "byteStride": 8,
      "name": "floatBufferViews",
      "target": 34962
    },
    {
      "buffer": 0,
      "byteLength": 676872,
      "byteOffset": 825624,
      "byteStride": 12,
      "name": "floatBufferViews",
      "target": 34962
    }
  ],
  "buffers": [
    {
      "byteLength": 1502496,
      "uri": "scene.bin"
    }
  ],
  "images": [
    {
      "uri": "textures/default_baseColor.jpeg"
    }
  ],
  "materials": [
    {
      "doubleSided": true,
      "name": "default",
      "pbrMetallicRoughness": {
        "baseColorTexture": {
          "index": 0
        },
        "metallicFactor": 0.0
      }
    }
  ],
  "meshes": [
    {
      "name": "high_poly_default_0",
      "primitives": [
        {
          "attributes": {
            "NORMAL": 1,
            "POSITION": 0,
            "TEXCOORD_0": 2
          },
          "indices": 3,
          "material": 0,
          "mode": 4
        }
      ]
    }
  ],
  "nodes": [
    {
      "children": [
        1
      ],
      "matrix": [
        1.0,
        0.0,
        0.0,
        0.0,
        0.0,
        2.220446049250313e-16,
        -1.0,
        0.0,
        0.0,
        1.0,
        2.220446049250313e-16,
        0.0,
        0.0,
        0.0,
        0.0,
        1.0
      ],
      "name": "Sketchfab_model"
    },
    {
      "children": [
        2
      ],
      "matrix": [
        0.009999999776482582,
        0.0,
        0.0,
        0.0,
        0.0,
        0.0,
        0.009999999776482582,
        0.0,
        0.0,
        -0.009999999776482582,
        0.0,
        0.0,
        0.0,
        0.0,
        0.0,
        1.0
      ],
      "name": "model.fbx"
    },
    {
      "children": [
        3
      ],
      "name": "RootNode"
    },
    {
      "children": [
        4
      ],
      "matrix": [
        55.66765213012695,
        0.0,
        0.0,
        0.0,
        0.0,
        -2.4333104561566476e-06,
        -55.667652130126896,
        0.0,
        0.0,
        55.667652130126896,
        -2.4333104561566476e-06,
        0.0,
        0.0,
        0.0,
        0.0,
        1.0
      ],
      "name": "high_poly"
    },
    {
      "mesh": 0,
      "name": "high_poly_default_0"
    }
  ],
  "samplers": [
    {
      "magFilter": 9729,
      "minFilter": 9987,
      "wrapS": 10497,
      "wrapT": 10497
    }
  ],
  "scene": 0,
  "scenes": [
    {
      "name": "Sketchfab_Scene",
      "nodes": [
        0
      ]
    }
  ],
  "textures": [
    {
      "sampler": 0,
      "source": 0
    }
  ]
}
