{
  "accessors": [
    {
      "bufferView": 2,
      "componentType": 5126,
      "count": 12971,
      "max": [
        0.03661790490150452,
        0.031138766556978226,
        0.034184779971838
      ],
      "min": [
        -0.037741631269454956,
        -0.03883887454867363,
        -0.04011211171746254
      ],
      "type": "VEC3"
    },
    {
      "bufferView": 2,
      "byteOffset": 155652,
      "componentType": 5126,
      "count": 12971,
      "max": [
        0.9996138215065002,
        0.9996559023857117,
        0.9999403357505798
      ],
      "min": [
        -0.9996095895767212,
        -0.9997101426124573,
        -0.9995027780532837
      ],
      "type": "VEC3"
    },
    {
      "bufferView": 3,
      "componentType": 5126,
      "count": 12971,
      "max": [
        0.9955544471740723,
        0.8769092559814453,
        0.9999158978462219,
        1.0
      ],
      "min": [
        -0.9973280429840088,
        -0.9995141625404358,
        -0.9999932646751404,
        1.0
      ],
      "type": "VEC4"
    },
    {
      "bufferView": 1,
      "componentType": 5126,
      "count": 12971,
      "max": [
        0.9999971985816956,
        0.801160991191864
      ],
      "min": [
        8.280328620458022e-05,
        4.513397652772255e-05
      ],
      "type": "VEC2"
    },
    {
      "bufferView": 1,
      "byteOffset": 103768,
      "componentType": 5126,
      "count": 12971,
      "max": [
        0.9999971985816956,
        0.801160991191864
      ],
      "min": [
        8.280328620458022e-05,
        4.513397652772255e-05
      ],
      "type": "VEC2"
    },
    {
      "bufferView": 0,
      "componentType": 5125,
      "count": 75000,
      "type": "SCALAR"
    }
  ],
  "asset": {
    "extras": {
      "author": "naka2012 (https://sketchfab.com/naka2012)",
      "license": "CC-BY-4.0 (http://creativecommons.org/licenses/by/4.0/)",
      "source": "https://sketchfab.com/3d-models/fresh-orange-4790ef6ed0ba4ad0b62a12a7875a114d",
      "title": "Fresh Orange"
    },
    "generator": "Sketchfab-16.12.0",
    "version": "2.0"
  },
  "bufferViews": [
    {
      "buffer": 0,
      "byteLength": 300000,
      "name": "floatBufferViews",
      "target": 34963
    },
    {
      "buffer": 0,
      "byteLength": 207536,
      "byteOffset": 300000,
      "byteStride": 8,
      "name": "floatBufferViews",
      "target": 34962
    },
    {
      "buffer": 0,
      "byteLength": 311304,
      "byteOffset": 507536,
      "byteStride": 12,
      "name": "floatBufferViews",
      "target": 34962
    },
    {
      "buffer": 0,
      "byteLength": 207536,
      "byteOffset": 818840,
      "byteStride": 16,
      "name": "floatBufferViews",
      "target": 34962
    }
  ],
  "buffers": [
    {
      "byteLength": 1026376,
      "uri": "scene.bin"
    }
  ],
  "images": [
    {
      "uri": "textures/Texture_baseColor.png"
    },
    {
      "uri": "textures/Texture_normal.png"
    }
  ],
  "materials": [
    {
      "doubleSided": true,
      "name": "Texture",
      "normalTexture": {
        "index": 1
      },
      "pbrMetallicRoughness": {
        "baseColorTexture": {
          "index": 0
        },
        "metallicFactor": 0.0,
        "roughnessFactor": 0.9
      }
    }
  ],
  "meshes": [
    {
      "name": "Object_0",
      "primitives": [
        {
          "attributes": {
            "NORMAL": 1,
            "POSITION": 0,
            "TANGENT": 2,
            "TEXCOORD_0": 3,
            "TEXCOORD_1": 4
          },
          "indices": 5,
          "material": 0,
          "mode": 4
        }
      ]
    }
  ],
  "nodes": [
    {
      "children": [
        1
      ],
      "matrix": [
        1.0,
        0.0,
        0.0,
        0.0,
        0.0,
        2.220446049250313e-16,
        -1.0,
        0.0,
        0.0,
        1.0,
        2.220446049250313e-16,
        0.0,
        0.0,
        0.0,
        0.0,
        1.0
      ],
      "name": "Sketchfab_model"
    },
    {
      "children": [
        2
      ],
      "name": "root"
    },
    {
      "children": [
        3
      ],
      "matrix": [
        1.0,
        0.0,
        0.0,
        0.0,
        0.0,
        2.220446049250313e-16,
        1.0,
        0.0,
        0.0,
        -1.0,
        2.220446049250313e-16,
        0.0,
        0.0,
        0.0,
        0.0,
        1.0
      ],
      "name": "GLTF_SceneRootNode"
    },
    {
      "children": [
        4
      ],
      "matrix": [
        4.2215352058410645,
        0.0,
        0.0,
        0.0,
        0.0,
        3.558488404314594e-07,
        4.2215356826782084,
        0.0,
        0.0,
        -4.2215356826782084,
        3.558488404314594e-07,
        0.0,
        0.0,
        0.0,
        0.0,
        1.0
      ],
      "name": "ObjectCapture_5"
    },
    {
      "children": [
        5
      ],
      "name": "Geometry_3"
    },
    {
      "children": [
        6
      ],
      "matrix": [
        4.797237426019057,
        -0.16083743676363893,
        -1.4002284202822053,
        0.0,
        1.4040369968506732,
        0.11098857882615998,
        4.797537039653232,
        0.0,
        -0.1232428513208185,
        -4.996179825563868,
        0.15165206964272815,
        0.0,
        0.0,
        0.0,
        0.0,
        1.0
      ],
      "name": "Mesh_2"
    },
    {
      "mesh": 0,
      "name": "Object_6"
    }
  ],
  "samplers": [
    {
      "magFilter": 9729,
      "minFilter": 9987,
      "wrapS": 10497,
      "wrapT": 10497
    }
  ],
  "scene": 0,
  "scenes": [
    {
      "name": "Sketchfab_Scene",
      "nodes": [
        0
      ]
    }
  ],
  "textures": [
    {
      "sampler": 0,
      "source": 0
    },
    {
      "sampler": 0,
      "source": 1
    }
  ]
}
